# xmcd
#
# Track frame offsets: 
#        150
#        19783
#        41064
#        62710
#        81796
#        102032
#        127257
#        150563
#        169585
#        191428
#        210711
#        230046
#        250987
#
# Disc length: 3681 seconds
#
# Revision: 0
# Processed by: cddbd v1.5.2PL0 Copyright (c) Steve Scherf et al.
# Submitted via: ExactAudioCopyFreeDBPlugin 1.0
#
DISCID=ad0e5f0d
DTITLE=阿木乃 - DTS51爱情买卖
DYEAR=2003
DGENRE=DTS
TTITLE0=爱情买卖
TTITLE1=梦回故乡
TTITLE2=父亲的草原母亲的河
TTITLE3=爱情错觉
TTITLE4=草原绿了
TTITLE5=蓝色的故乡
TTITLE6=手心里的温柔
TTITLE7=坐上火车去拉萨
TTITLE8=梦中的香格里拉
TTITLE9=火凤凰
TTITLE10=格桑花开
TTITLE11=心下雪了
TTITLE12=辽阔的草原
EXTD=
EXTT0=
EXTT1=
EXTT2=
EXTT3=
EXTT4=
EXTT5=
EXTT6=
EXTT7=
EXTT8=
EXTT9=
EXTT10=
EXTT11=
EXTT12=
PLAYORDER=
